<svg height='300px' width='300px'  fill="#000000" xmlns="http://www.w3.org/2000/svg" viewBox="0 0 64 64" x="0px" y="0px"><g><path d="M59,54H54v2H52V50h8V44H52V26h8V20H52V5a3,3,0,0,0-3-3H15a3,3,0,0,0-3,3V6H10V4H5a3,3,0,0,0,0,6h5V8h2v6H4v6h8V38H4v6h8V59a3,3,0,0,0,3,3H49a3,3,0,0,0,3-3V58h2v2h5a3,3,0,0,0,0-6ZM52,22h6v2H52Zm0,24h6v2H52ZM8,8H5A1,1,0,0,1,5,6H8Zm4,34H6V40h6Zm0-24H6V16h6ZM23,4H41V6H34.816a2.982,2.982,0,0,0-5.632,0H23ZM33,7a1,1,0,1,1-1-1A1,1,0,0,1,33,7ZM23,8h6.184a2.982,2.982,0,0,0,5.632,0H41v2H23ZM14,5a1,1,0,0,1,1-1h6V6H14Zm7,55H15a1,1,0,0,1-1-1V58h7Zm20,0H23V58h6.184a2.982,2.982,0,0,0,5.632,0H41ZM31,57a1,1,0,1,1,1,1A1,1,0,0,1,31,57Zm10-1H34.816a2.982,2.982,0,0,0-5.632,0H23V54H41Zm9,3a1,1,0,0,1-1,1H43V58h7Zm0-3H43V52H21v4H14V48h3.184a2.982,2.982,0,0,0,5.632,0H34.184a2.982,2.982,0,0,0,5.632,0H50ZM19,47a1,1,0,1,1,1,1A1,1,0,0,1,19,47Zm17,0a1,1,0,1,1,1,1A1,1,0,0,1,36,47Zm14-1H39.816a2.982,2.982,0,0,0-5.632,0H22.816a2.982,2.982,0,0,0-5.632,0H14V42H24.184a2.982,2.982,0,0,0,5.632,0H41.184a2.982,2.982,0,0,0,5.632,0H50ZM26,41a1,1,0,1,1,1,1A1,1,0,0,1,26,41Zm17,0a1,1,0,1,1,1,1A1,1,0,0,1,43,41Zm7-1H46.816a2.982,2.982,0,0,0-5.632,0H29.816a2.982,2.982,0,0,0-5.632,0H14V33H26.09a5.993,5.993,0,0,0,11.82,0H50ZM35.858,33a3.981,3.981,0,0,1-7.716,0Zm-7.716-2a3.981,3.981,0,0,1,7.716,0ZM50,31H37.91a5.993,5.993,0,0,0-11.82,0H14V24h3.184a2.982,2.982,0,0,0,5.632,0H34.184a2.982,2.982,0,0,0,5.632,0H50ZM19,23a1,1,0,1,1,1,1A1,1,0,0,1,19,23Zm17,0a1,1,0,1,1,1,1A1,1,0,0,1,36,23Zm14-1H39.816a2.982,2.982,0,0,0-5.632,0H22.816a2.982,2.982,0,0,0-5.632,0H14V18H24.184a2.982,2.982,0,0,0,5.632,0H41.184a2.982,2.982,0,0,0,5.632,0H50ZM26,17a1,1,0,1,1,1,1A1,1,0,0,1,26,17Zm17,0a1,1,0,1,1,1,1A1,1,0,0,1,43,17Zm7-1H46.816a2.982,2.982,0,0,0-5.632,0H29.816a2.982,2.982,0,0,0-5.632,0H14V8h7v4H43V8h7ZM50,6H43V4h6a1,1,0,0,1,1,1Zm9,52H56V56h3a1,1,0,0,1,0,2Z"></path><rect x="17" y="36" width="2" height="2"></rect><rect x="44" y="26" width="2" height="2"></rect></g></svg>